<svg width="100" height="100" viewBox="0 0 100 100" fill="none" xmlns="http://www.w3.org/2000/svg">
<path d="M31.25 0H81.25C84.5652 0 87.7446 1.31696 90.0888 3.66117C92.433 6.00537 93.75 9.18479 93.75 12.5V75C93.75 78.3152 92.433 81.4946 90.0888 83.8388C87.7446 86.183 84.5652 87.5 81.25 87.5C81.25 90.8152 79.933 93.9946 77.5888 96.3388C75.2446 98.683 72.0652 100 68.75 100H18.75C15.4348 100 12.2554 98.683 9.91117 96.3388C7.56696 93.9946 6.25 90.8152 6.25 87.5H12.5C12.5 89.1576 13.1585 90.7473 14.3306 91.9194C15.5027 93.0915 17.0924 93.75 18.75 93.75H68.75C70.4076 93.75 71.9973 93.0915 73.1694 91.9194C74.3415 90.7473 75 89.1576 75 87.5V25C75 23.3424 74.3415 21.7527 73.1694 20.5806C71.9973 19.4085 70.4076 18.75 68.75 18.75H18.75C17.0924 18.75 15.5027 19.4085 14.3306 20.5806C13.1585 21.7527 12.5 23.3424 12.5 25H6.25C6.25 21.6848 7.56696 18.5054 9.91117 16.1612C12.2554 13.817 15.4348 12.5 18.75 12.5H68.75C72.0652 12.5 75.2446 13.817 77.5888 16.1612C79.933 18.5054 81.25 21.6848 81.25 25V81.25C82.9076 81.25 84.4973 80.5915 85.6694 79.4194C86.8415 78.2473 87.5 76.6576 87.5 75V12.5C87.5 10.8424 86.8415 9.25268 85.6694 8.08058C84.4973 6.90848 82.9076 6.25 81.25 6.25H31.25C29.5924 6.25 28.0027 6.90848 26.8306 8.08058C25.6585 9.25268 25 10.8424 25 12.5H18.75C18.75 9.18479 20.067 6.00537 22.4112 3.66117C24.7554 1.31696 27.9348 0 31.25 0Z" fill="#0000FF" fill-opacity="0.7"/>
<path d="M6.25 37.5V34.375C6.25 33.5462 6.57924 32.7513 7.16529 32.1653C7.75134 31.5792 8.5462 31.25 9.375 31.25C10.2038 31.25 10.9987 31.5792 11.5847 32.1653C12.1708 32.7513 12.5 33.5462 12.5 34.375V37.5H15.625C16.4538 37.5 17.2487 37.8292 17.8347 38.4153C18.4208 39.0013 18.75 39.7962 18.75 40.625C18.75 41.4538 18.4208 42.2487 17.8347 42.8347C17.2487 43.4208 16.4538 43.75 15.625 43.75H3.125C2.2962 43.75 1.50134 43.4208 0.915291 42.8347C0.32924 42.2487 0 41.4538 0 40.625C0 39.7962 0.32924 39.0013 0.915291 38.4153C1.50134 37.8292 2.2962 37.5 3.125 37.5H6.25ZM6.25 56.25V53.125C6.25 52.2962 6.57924 51.5013 7.16529 50.9153C7.75134 50.3292 8.5462 50 9.375 50C10.2038 50 10.9987 50.3292 11.5847 50.9153C12.1708 51.5013 12.5 52.2962 12.5 53.125V56.25H15.625C16.4538 56.25 17.2487 56.5792 17.8347 57.1653C18.4208 57.7513 18.75 58.5462 18.75 59.375C18.75 60.2038 18.4208 60.9987 17.8347 61.5847C17.2487 62.1708 16.4538 62.5 15.625 62.5H3.125C2.2962 62.5 1.50134 62.1708 0.915291 61.5847C0.32924 60.9987 0 60.2038 0 59.375C0 58.5462 0.32924 57.7513 0.915291 57.1653C1.50134 56.5792 2.2962 56.25 3.125 56.25H6.25ZM6.25 71.875V75H3.125C2.2962 75 1.50134 75.3292 0.915291 75.9153C0.32924 76.5013 0 77.2962 0 78.125C0 78.9538 0.32924 79.7487 0.915291 80.3347C1.50134 80.9208 2.2962 81.25 3.125 81.25H15.625C16.4538 81.25 17.2487 80.9208 17.8347 80.3347C18.4208 79.7487 18.75 78.9538 18.75 78.125C18.75 77.2962 18.4208 76.5013 17.8347 75.9153C17.2487 75.3292 16.4538 75 15.625 75H12.5V71.875C12.5 71.0462 12.1708 70.2513 11.5847 69.6653C10.9987 69.0792 10.2038 68.75 9.375 68.75C8.5462 68.75 7.75134 69.0792 7.16529 69.6653C6.57924 70.2513 6.25 71.0462 6.25 71.875Z" fill="#0000FF" fill-opacity="0.7"/>
</svg>
