<svg width="100" height="100" viewBox="0 0 100 100" fill="none" xmlns="http://www.w3.org/2000/svg">
<path d="M50 25L55.975 36.5719L68.75 38.4281L59.375 46.875L62.5 59.375L50 52.3438L37.5 59.375L40.625 46.875L31.25 38.4281L44.375 36.5719L50 25Z" fill="#0000FF" fill-opacity="0.7"/>
<path d="M55.425 93.75L50 90.625L62.5 68.75H81.25C82.0711 68.7512 82.8844 68.5904 83.6432 68.2768C84.4021 67.9631 85.0916 67.5028 85.6722 66.9222C86.2528 66.3416 86.7131 65.6521 87.0268 64.8932C87.3404 64.1344 87.5012 63.3211 87.5 62.5V25C87.5012 24.1789 87.3404 23.3656 87.0268 22.6068C86.7131 21.8479 86.2528 21.1584 85.6722 20.5778C85.0916 19.9972 84.4021 19.5369 83.6432 19.2232C82.8844 18.9096 82.0711 18.7488 81.25 18.75H18.75C17.9289 18.7488 17.1156 18.9096 16.3568 19.2232C15.5979 19.5369 14.9084 19.9972 14.3278 20.5778C13.7472 21.1584 13.2869 21.8479 12.9732 22.6068C12.6596 23.3656 12.4988 24.1789 12.5 25V62.5C12.4988 63.3211 12.6596 64.1344 12.9732 64.8932C13.2869 65.6521 13.7472 66.3416 14.3278 66.9222C14.9084 67.5028 15.5979 67.9631 16.3568 68.2768C17.1156 68.5904 17.9289 68.7512 18.75 68.75H46.875V75H18.75C15.4348 75 12.2554 73.683 9.91117 71.3388C7.56696 68.9946 6.25 65.8152 6.25 62.5V25C6.25 21.6848 7.56696 18.5054 9.91117 16.1612C12.2554 13.817 15.4348 12.5 18.75 12.5H81.25C84.5652 12.5 87.7446 13.817 90.0888 16.1612C92.433 18.5054 93.75 21.6848 93.75 25V62.5C93.75 65.8152 92.433 68.9946 90.0888 71.3388C87.7446 73.683 84.5652 75 81.25 75H66.1406L55.425 93.75Z" fill="#0000FF" fill-opacity="0.7"/>
</svg>
