<svg width="26" height="24" viewBox="0 0 26 24" fill="none" xmlns="http://www.w3.org/2000/svg">
<path d="M23.1368 20.6895L17.1117 15.0255C18.5595 13.3914 19.2815 11.2956 19.1275 9.17389C18.9734 7.05219 17.9551 5.06801 16.2845 3.6341C14.6139 2.2002 12.4195 1.42697 10.1578 1.47528C7.89618 1.52359 5.74142 2.38971 4.14178 3.89347C2.54214 5.39723 1.6208 7.42284 1.56941 9.54893C1.51802 11.675 2.34055 13.7379 3.86587 15.3084C5.3912 16.8789 7.5019 17.8361 9.75887 17.981C12.0159 18.1258 14.2453 17.4471 15.9835 16.086L22.0087 21.75L23.1368 20.6895ZM3.19131 9.74996C3.19131 8.41494 3.61243 7.1099 4.40142 5.99987C5.19041 4.88983 6.31183 4.02467 7.62387 3.51378C8.93591 3.00289 10.3796 2.86921 11.7725 3.12966C13.1654 3.39011 14.4448 4.03299 15.449 4.97699C16.4532 5.921 17.137 7.12373 17.4141 8.4331C17.6911 9.74248 17.5489 11.0997 17.0055 12.3331C16.462 13.5665 15.5417 14.6207 14.3609 15.3624C13.1801 16.1041 11.7918 16.5 10.3717 16.5C8.46797 16.498 6.64284 15.7862 5.29672 14.5207C3.9506 13.2553 3.19342 11.5396 3.19131 9.74996Z" fill="#8F8989"/>
</svg>
