<svg width="24" height="25" viewBox="0 0 24 25" fill="none" xmlns="http://www.w3.org/2000/svg">
<path d="M18.75 13.25L3.75 13.25C3.55109 13.25 3.36032 13.171 3.21967 13.0303C3.07902 12.8897 3 12.6989 3 12.5C3 12.3011 3.07902 12.1103 3.21967 11.9697C3.36032 11.829 3.55109 11.75 3.75 11.75L18.75 11.75C18.9489 11.75 19.1397 11.829 19.2803 11.9697C19.421 12.1103 19.5 12.3011 19.5 12.5C19.5 12.6989 19.421 12.8897 19.2803 13.0303C19.1397 13.171 18.9489 13.25 18.75 13.25Z" fill="white"/>
<path d="M18.4394 12.5L12.2189 6.28103C12.0781 6.1402 11.9989 5.94919 11.9989 5.75003C11.9989 5.55087 12.0781 5.35986 12.2189 5.21903C12.3597 5.0782 12.5507 4.99908 12.7499 4.99908C12.949 4.99908 13.1401 5.0782 13.2809 5.21903L20.0309 11.969C20.1007 12.0387 20.1561 12.1215 20.1939 12.2126C20.2318 12.3037 20.2512 12.4014 20.2512 12.5C20.2512 12.5987 20.2318 12.6964 20.1939 12.7875C20.1561 12.8786 20.1007 12.9614 20.0309 13.031L13.2809 19.781C13.1401 19.9219 12.949 20.001 12.7499 20.001C12.5507 20.001 12.3597 19.9219 12.2189 19.781C12.0781 19.6402 11.9989 19.4492 11.9989 19.25C11.9989 19.0509 12.0781 18.8599 12.2189 18.719L18.4394 12.5Z" fill="white"/>
</svg>
