<svg width="29" height="29" viewBox="0 0 29 29" fill="none" xmlns="http://www.w3.org/2000/svg">
<path d="M22.6056 15.5491L4.87413 15.5491C4.639 15.5491 4.41349 15.4588 4.24723 15.2981C4.08096 15.1375 3.98756 14.9196 3.98756 14.6923C3.98756 14.4651 4.08096 14.2472 4.24723 14.0865C4.41349 13.9259 4.639 13.8356 4.87413 13.8356L22.6056 13.8356C22.8407 13.8356 23.0663 13.9259 23.2325 14.0865C23.3988 14.2472 23.4922 14.4651 23.4922 14.6923C23.4922 14.9196 23.3988 15.1375 23.2325 15.2981C23.0663 15.4588 22.8407 15.5491 22.6056 15.5491Z" fill="#5C5B5B"/>
<path d="M22.2386 14.6924L14.8854 7.58834C14.7189 7.42747 14.6254 7.20928 14.6254 6.98178C14.6254 6.75427 14.7189 6.53608 14.8854 6.37521C15.0518 6.21434 15.2776 6.12396 15.513 6.12396C15.7485 6.12396 15.9743 6.21434 16.1407 6.37521L24.1199 14.0858C24.2025 14.1654 24.268 14.2599 24.3127 14.364C24.3574 14.4681 24.3804 14.5797 24.3804 14.6924C24.3804 14.805 24.3574 14.9166 24.3127 15.0207C24.268 15.1248 24.2025 15.2193 24.1199 15.2989L16.1407 23.0095C15.9743 23.1704 15.7485 23.2607 15.513 23.2607C15.2776 23.2607 15.0518 23.1704 14.8854 23.0095C14.7189 22.8486 14.6254 22.6304 14.6254 22.4029C14.6254 22.1754 14.7189 21.9572 14.8854 21.7964L22.2386 14.6924Z" fill="#5C5B5B"/>
</svg>
