<svg width="29" height="29" viewBox="0 0 29 29" fill="none" xmlns="http://www.w3.org/2000/svg">
<path d="M22.6723 15.3403L4.93748 15.3403C4.7023 15.3403 4.47676 15.251 4.31046 15.0919C4.14417 14.9329 4.05074 14.7172 4.05074 14.4923C4.05074 14.2673 4.14417 14.0516 4.31046 13.8926C4.47676 13.7335 4.7023 13.6442 4.93748 13.6442L22.6723 13.6442C22.9075 13.6442 23.1331 13.7335 23.2994 13.8926C23.4657 14.0516 23.5591 14.2673 23.5591 14.4923C23.5591 14.7172 23.4657 14.9329 23.2994 15.0919C23.1331 15.251 22.9075 15.3403 22.6723 15.3403Z" fill="#5C5B5B"/>
<path d="M22.3051 14.4923L14.9504 7.46003C14.7839 7.30078 14.6904 7.0848 14.6904 6.85959C14.6904 6.63438 14.7839 6.4184 14.9504 6.25915C15.1169 6.0999 15.3428 6.01044 15.5783 6.01044C15.8137 6.01044 16.0396 6.0999 16.2061 6.25915L24.1868 13.8918C24.2693 13.9706 24.3348 14.0642 24.3796 14.1672C24.4243 14.2703 24.4473 14.3807 24.4473 14.4923C24.4473 14.6038 24.4243 14.7143 24.3796 14.8173C24.3348 14.9204 24.2693 15.0139 24.1868 15.0927L16.2061 22.7254C16.0396 22.8847 15.8137 22.9741 15.5783 22.9741C15.3428 22.9741 15.1169 22.8847 14.9504 22.7254C14.7839 22.5662 14.6904 22.3502 14.6904 22.125C14.6904 21.8998 14.7839 21.6838 14.9504 21.5245L22.3051 14.4923Z" fill="#5C5B5B"/>
</svg>
