<svg width="29" height="29" viewBox="0 0 29 29" fill="none" xmlns="http://www.w3.org/2000/svg">
<path d="M22.6059 15.549L4.87437 15.549C4.63924 15.549 4.41374 15.4588 4.24747 15.2981C4.08121 15.1374 3.9878 14.9195 3.9878 14.6923C3.9878 14.4651 4.08121 14.2472 4.24747 14.0865C4.41374 13.9258 4.63924 13.8356 4.87437 13.8356L22.6059 13.8356C22.841 13.8356 23.0665 13.9258 23.2328 14.0865C23.399 14.2472 23.4924 14.4651 23.4924 14.6923C23.4924 14.9195 23.399 15.1374 23.2328 15.2981C23.0665 15.4588 22.841 15.549 22.6059 15.549Z" fill="#5C5B5B"/>
<path d="M22.2386 14.6923L14.8854 7.58828C14.7189 7.42741 14.6254 7.20922 14.6254 6.98172C14.6254 6.75421 14.7189 6.53602 14.8854 6.37515C15.0518 6.21428 15.2776 6.1239 15.513 6.1239C15.7485 6.1239 15.9743 6.21428 16.1407 6.37515L24.1199 14.0857C24.2025 14.1653 24.268 14.2599 24.3127 14.3639C24.3574 14.468 24.3804 14.5796 24.3804 14.6923C24.3804 14.805 24.3574 14.9166 24.3127 15.0206C24.268 15.1247 24.2025 15.2193 24.1199 15.2989L16.1407 23.0094C15.9743 23.1703 15.7485 23.2607 15.513 23.2607C15.2776 23.2607 15.0518 23.1703 14.8854 23.0094C14.7189 22.8486 14.6254 22.6304 14.6254 22.4029C14.6254 22.1754 14.7189 21.9572 14.8854 21.7963L22.2386 14.6923Z" fill="#5C5B5B"/>
</svg>
