<svg width="29" height="29" viewBox="0 0 29 29" fill="none" xmlns="http://www.w3.org/2000/svg">
<path d="M22.6061 15.5491L4.87462 15.5491C4.63948 15.5491 4.41398 15.4588 4.24771 15.2981C4.08145 15.1375 3.98804 14.9196 3.98804 14.6923C3.98804 14.4651 4.08145 14.2472 4.24771 14.0865C4.41398 13.9259 4.63948 13.8356 4.87462 13.8356L22.6061 13.8356C22.8412 13.8356 23.0667 13.9259 23.233 14.0865C23.3993 14.2472 23.4927 14.4651 23.4927 14.6923C23.4927 14.9196 23.3993 15.1375 23.233 15.2981C23.0667 15.4588 22.8412 15.5491 22.6061 15.5491Z" fill="#5C5B5B"/>
<path d="M22.2391 14.6924L14.8858 7.58834C14.7194 7.42747 14.6258 7.20928 14.6258 6.98178C14.6258 6.75427 14.7194 6.53608 14.8858 6.37521C15.0523 6.21434 15.2781 6.12396 15.5135 6.12396C15.749 6.12396 15.9748 6.21434 16.1412 6.37521L24.1204 14.0858C24.203 14.1654 24.2685 14.2599 24.3132 14.364C24.3579 14.4681 24.3809 14.5797 24.3809 14.6924C24.3809 14.805 24.3579 14.9166 24.3132 15.0207C24.2685 15.1248 24.203 15.2193 24.1204 15.2989L16.1412 23.0095C15.9748 23.1704 15.749 23.2607 15.5135 23.2607C15.2781 23.2607 15.0523 23.1704 14.8858 23.0095C14.7194 22.8486 14.6258 22.6304 14.6258 22.4029C14.6258 22.1754 14.7194 21.9572 14.8858 21.7964L22.2391 14.6924Z" fill="#5C5B5B"/>
</svg>
