<svg width="29" height="29" viewBox="0 0 29 29" fill="none" xmlns="http://www.w3.org/2000/svg">
<path d="M22.6786 15.5488L4.94713 15.5488C4.71199 15.5488 4.48649 15.4586 4.32022 15.2979C4.15396 15.1372 4.06055 14.9193 4.06055 14.6921C4.06055 14.4649 4.15396 14.247 4.32022 14.0863C4.48649 13.9256 4.71199 13.8354 4.94713 13.8354L22.6786 13.8354C22.9137 13.8354 23.1392 13.9256 23.3055 14.0863C23.4718 14.247 23.5652 14.4649 23.5652 14.6921C23.5652 14.9193 23.4718 15.1372 23.3055 15.2979C23.1392 15.4586 22.9137 15.5488 22.6786 15.5488Z" fill="#5C5B5B"/>
<path d="M22.3116 14.6921L14.9584 7.5881C14.7919 7.42723 14.6984 7.20904 14.6984 6.98153C14.6984 6.75403 14.7919 6.53584 14.9584 6.37497C15.1248 6.2141 15.3506 6.12372 15.586 6.12372C15.8215 6.12372 16.0473 6.2141 16.2137 6.37497L24.1929 14.0855C24.2755 14.1651 24.341 14.2597 24.3857 14.3638C24.4304 14.4678 24.4534 14.5794 24.4534 14.6921C24.4534 14.8048 24.4304 14.9164 24.3857 15.0205C24.341 15.1245 24.2755 15.2191 24.1929 15.2987L16.2137 23.0093C16.0473 23.1701 15.8215 23.2605 15.586 23.2605C15.3506 23.2605 15.1248 23.1701 14.9584 23.0093C14.7919 22.8484 14.6984 22.6302 14.6984 22.4027C14.6984 22.1752 14.7919 21.957 14.9584 21.7961L22.3116 14.6921Z" fill="#5C5B5B"/>
</svg>
