<svg width="51" height="24" viewBox="0 0 51 24" fill="none" xmlns="http://www.w3.org/2000/svg">
<path d="M39.8438 12.75L7.96875 12.75C7.54606 12.75 7.14068 12.671 6.8418 12.5303C6.54291 12.3897 6.375 12.1989 6.375 12C6.375 11.8011 6.54291 11.6103 6.8418 11.4697C7.14068 11.329 7.54606 11.25 7.96875 11.25L39.8438 11.25C40.2664 11.25 40.6718 11.329 40.9707 11.4697C41.2696 11.6103 41.4375 11.8011 41.4375 12C41.4375 12.1989 41.2696 12.3897 40.9707 12.5303C40.6718 12.671 40.2664 12.75 39.8438 12.75Z" fill="white"/>
<path d="M39.1839 12L25.9653 5.78103C25.6661 5.6402 25.4979 5.44919 25.4979 5.25003C25.4979 5.05087 25.6661 4.85986 25.9653 4.71903C26.2646 4.5782 26.6705 4.49908 27.0937 4.49908C27.5169 4.49908 27.9228 4.5782 28.2221 4.71903L42.5658 11.469C42.7143 11.5387 42.832 11.6215 42.9124 11.7126C42.9927 11.8037 43.0341 11.9014 43.0341 12C43.0341 12.0987 42.9927 12.1964 42.9124 12.2875C42.832 12.3786 42.7143 12.4614 42.5658 12.531L28.2221 19.281C27.9228 19.4219 27.5169 19.501 27.0937 19.501C26.6705 19.501 26.2646 19.4219 25.9653 19.281C25.6661 19.1402 25.4979 18.9492 25.4979 18.75C25.4979 18.5509 25.6661 18.3599 25.9653 18.219L39.1839 12Z" fill="white"/>
</svg>
