<svg width="29" height="29" viewBox="0 0 29 29" fill="none" xmlns="http://www.w3.org/2000/svg">
<path d="M22.6057 15.5491L4.87425 15.5491C4.63912 15.5491 4.41361 15.4588 4.24735 15.2981C4.08109 15.1375 3.98768 14.9196 3.98768 14.6923C3.98768 14.4651 4.08109 14.2472 4.24735 14.0865C4.41361 13.9259 4.63912 13.8356 4.87425 13.8356L22.6057 13.8356C22.8409 13.8356 23.0664 13.9259 23.2326 14.0865C23.3989 14.2472 23.4923 14.4651 23.4923 14.6923C23.4923 14.9196 23.3989 15.1375 23.2326 15.2981C23.0664 15.4588 22.8409 15.5491 22.6057 15.5491Z" fill="#5C5B5B"/>
<path d="M22.2387 14.6924L14.8855 7.58834C14.719 7.42747 14.6255 7.20928 14.6255 6.98178C14.6255 6.75427 14.719 6.53608 14.8855 6.37521C15.0519 6.21434 15.2777 6.12396 15.5132 6.12396C15.7486 6.12396 15.9744 6.21434 16.1409 6.37521L24.12 14.0858C24.2026 14.1654 24.2681 14.2599 24.3128 14.364C24.3575 14.4681 24.3805 14.5797 24.3805 14.6924C24.3805 14.805 24.3575 14.9166 24.3128 15.0207C24.2681 15.1248 24.2026 15.2193 24.12 15.2989L16.1409 23.0095C15.9744 23.1704 15.7486 23.2607 15.5132 23.2607C15.2777 23.2607 15.0519 23.1704 14.8855 23.0095C14.719 22.8486 14.6255 22.6304 14.6255 22.4029C14.6255 22.1754 14.719 21.9572 14.8855 21.7964L22.2387 14.6924Z" fill="#5C5B5B"/>
</svg>
